<?xml version="1.0" standalone="no"?>
<!DOCTYPE svg PUBLIC "-//W3C//DTD SVG 20010904//EN"
 "http://www.w3.org/TR/2001/REC-SVG-20010904/DTD/svg10.dtd">
<svg version="1.0" xmlns="http://www.w3.org/2000/svg"
 width="100.000000pt" height="100.000000pt" viewBox="0 0 100.000000 100.000000"
 preserveAspectRatio="xMidYMid meet">
<metadata>
Created by potrace 1.14, written by Peter Selinger 2001-2017
</metadata>
<g transform="translate(0.000000,100.000000) scale(0.100000,-0.100000)"
fill="#000000" stroke="none">
<path d="M427 946 c-36 -13 -73 -39 -89 -60 -4 -6 -37 -10 -75 -11 -96 -1
-158 -39 -201 -120 -23 -45 -25 -131 -3 -179 21 -46 72 -102 102 -111 17 -6
19 -17 19 -116 l0 -109 320 0 320 0 0 108 1 107 37 23 c116 72 134 239 37 337
-44 43 -85 59 -155 59 -53 1 -69 5 -88 23 -55 54 -154 76 -225 49z m-52 -537
c0 -32 -4 -44 -15 -44 -16 0 -26 54 -16 82 12 30 31 6 31 -38z m140 -10 c0
-41 -4 -54 -15 -54 -16 0 -27 73 -16 102 13 33 31 5 31 -48z m140 10 c0 -32
-4 -44 -15 -44 -16 0 -26 54 -16 82 12 30 31 6 31 -38z"/>
<path d="M182 123 l3 -78 315 0 315 0 3 78 3 77 -321 0 -321 0 3 -77z"/>
</g>
</svg>
