<svg width="166" height="41" viewBox="0 0 166 41" fill="none" xmlns="http://www.w3.org/2000/svg">
<path d="M10.4578 34C10.1165 34 9.81784 33.8827 9.56184 33.648C9.32718 33.392 9.20984 33.0933 9.20984 32.752V24.752L0.505844 10.96C0.29251 10.64 0.207177 10.3307 0.249844 10.032C0.313844 9.73333 0.45251 9.488 0.665844 9.296C0.879177 9.104 1.14584 9.008 1.46584 9.008C1.72184 9.008 1.92451 9.06133 2.07384 9.168C2.24451 9.27467 2.39384 9.424 2.52184 9.616L11.1618 23.536H9.81784L18.4258 9.68C18.5752 9.44533 18.7352 9.27467 18.9058 9.168C19.0978 9.06133 19.3218 9.008 19.5778 9.008C19.8765 9.008 20.1218 9.11467 20.3138 9.328C20.5272 9.52 20.6445 9.76533 20.6658 10.064C20.7085 10.3627 20.6338 10.6613 20.4418 10.96L11.7058 24.752V32.752C11.7058 33.0933 11.5778 33.392 11.3218 33.648C11.0872 33.8827 10.7992 34 10.4578 34ZM33.9981 34.32C32.1421 34.32 30.4354 34 28.8781 33.36C27.3208 32.72 25.9661 31.824 24.8141 30.672C23.6834 29.52 22.7981 28.1653 22.1581 26.608C21.5394 25.0507 21.2301 23.344 21.2301 21.488C21.2301 19.6533 21.5394 17.9573 22.1581 16.4C22.7981 14.8427 23.6834 13.488 24.8141 12.336C25.9661 11.184 27.3208 10.288 28.8781 9.648C30.4354 9.008 32.1421 8.688 33.9981 8.688C35.8328 8.688 37.5288 9.008 39.0861 9.648C40.6434 10.288 41.9981 11.184 43.1501 12.336C44.3021 13.488 45.1874 14.8427 45.8061 16.4C46.4461 17.9573 46.7661 19.6533 46.7661 21.488C46.7661 23.344 46.4461 25.0507 45.8061 26.608C45.1874 28.1653 44.3021 29.52 43.1501 30.672C41.9981 31.824 40.6434 32.72 39.0861 33.36C37.5288 34 35.8328 34.32 33.9981 34.32ZM33.9981 31.952C35.4701 31.952 36.8354 31.696 38.0941 31.184C39.3528 30.6507 40.4408 29.9147 41.3581 28.976C42.2968 28.016 43.0221 26.9067 43.5341 25.648C44.0461 24.368 44.3021 22.9813 44.3021 21.488C44.3021 20.016 44.0461 18.6507 43.5341 17.392C43.0221 16.112 42.2968 15.0027 41.3581 14.064C40.4408 13.104 39.3528 12.368 38.0941 11.856C36.8354 11.3227 35.4701 11.056 33.9981 11.056C32.5048 11.056 31.1288 11.3227 29.8701 11.856C28.6114 12.368 27.5128 13.104 26.5741 14.064C25.6568 15.0027 24.9421 16.112 24.4301 17.392C23.9181 18.6507 23.6621 20.016 23.6621 21.488C23.6621 22.9813 23.9181 24.368 24.4301 25.648C24.9421 26.9067 25.6568 28.016 26.5741 28.976C27.5128 29.9147 28.6114 30.6507 29.8701 31.184C31.1288 31.696 32.5048 31.952 33.9981 31.952ZM53.1628 34C52.8002 34 52.5015 33.8827 52.2668 33.648C52.0322 33.4133 51.9148 33.1147 51.9148 32.752V10.256C51.9148 9.89333 52.0322 9.59466 52.2668 9.36C52.5015 9.12533 52.8002 9.008 53.1628 9.008H59.1468C60.7042 9.008 62.0908 9.33867 63.3068 10C64.5228 10.64 65.4722 11.5467 66.1548 12.72C66.8588 13.872 67.2108 15.2053 67.2108 16.72C67.2108 18.1707 66.8588 19.4613 66.1548 20.592C65.4722 21.7227 64.5228 22.608 63.3068 23.248C62.0908 23.888 60.7042 24.208 59.1468 24.208H54.4108V32.752C54.4108 33.1147 54.2935 33.4133 54.0588 33.648C53.8242 33.8827 53.5255 34 53.1628 34ZM66.5388 34C66.2615 34 66.0375 33.9467 65.8668 33.84C65.7175 33.7333 65.5788 33.5733 65.4508 33.36L59.3068 23.568L61.8028 22.928L67.5308 32.08C67.8508 32.592 67.9042 33.04 67.6908 33.424C67.4988 33.808 67.1148 34 66.5388 34ZM54.4108 21.808H59.1468C60.2348 21.808 61.1948 21.5947 62.0268 21.168C62.8802 20.72 63.5522 20.112 64.0428 19.344C64.5335 18.576 64.7788 17.7013 64.7788 16.72C64.7788 15.6747 64.5335 14.7573 64.0428 13.968C63.5522 13.1573 62.8802 12.528 62.0268 12.08C61.1948 11.632 60.2348 11.408 59.1468 11.408H54.4108V21.808ZM72.9441 34C72.5814 34 72.2828 33.8827 72.0481 33.648C71.8134 33.4133 71.6961 33.1147 71.6961 32.752V10.256C71.6961 9.89333 71.8134 9.59466 72.0481 9.36C72.2828 9.12533 72.5814 9.008 72.9441 9.008C73.3068 9.008 73.6054 9.12533 73.8401 9.36C74.0748 9.59466 74.1921 9.89333 74.1921 10.256V32.752C74.1921 33.1147 74.0748 33.4133 73.8401 33.648C73.6054 33.8827 73.3068 34 72.9441 34ZM95.7373 34.32C94.308 34.32 93.028 33.9893 91.8973 33.328C90.7667 32.6667 89.8707 31.7707 89.2093 30.64C88.548 29.5093 88.2173 28.24 88.2173 26.832C88.2173 26.4693 88.3347 26.1707 88.5693 25.936C88.804 25.7013 89.1027 25.584 89.4653 25.584C89.828 25.584 90.1267 25.7013 90.3613 25.936C90.596 26.1707 90.7133 26.4693 90.7133 26.832C90.7133 27.792 90.9373 28.6667 91.3853 29.456C91.8333 30.224 92.4307 30.832 93.1773 31.28C93.9453 31.728 94.7987 31.952 95.7373 31.952C96.676 31.952 97.5187 31.728 98.2653 31.28C99.0333 30.8107 99.6307 30.192 100.057 29.424C100.505 28.656 100.729 27.792 100.729 26.832V10.256C100.729 9.89333 100.847 9.59466 101.081 9.36C101.316 9.12533 101.615 9.008 101.977 9.008C102.34 9.008 102.639 9.12533 102.873 9.36C103.108 9.59466 103.225 9.89333 103.225 10.256V26.832C103.225 28.24 102.895 29.5093 102.233 30.64C101.572 31.7707 100.676 32.6667 99.5453 33.328C98.4147 33.9893 97.1453 34.32 95.7373 34.32ZM121.186 34.32C119.33 34.32 117.623 34 116.066 33.36C114.508 32.72 113.154 31.824 112.002 30.672C110.871 29.52 109.986 28.1653 109.346 26.608C108.727 25.0507 108.418 23.344 108.418 21.488C108.418 19.6533 108.727 17.9573 109.346 16.4C109.986 14.8427 110.871 13.488 112.002 12.336C113.154 11.184 114.508 10.288 116.066 9.648C117.623 9.008 119.33 8.688 121.186 8.688C123.02 8.688 124.716 9.008 126.274 9.648C127.831 10.288 129.186 11.184 130.338 12.336C131.49 13.488 132.375 14.8427 132.994 16.4C133.634 17.9573 133.954 19.6533 133.954 21.488C133.954 23.344 133.634 25.0507 132.994 26.608C132.375 28.1653 131.49 29.52 130.338 30.672C129.186 31.824 127.831 32.72 126.274 33.36C124.716 34 123.02 34.32 121.186 34.32ZM121.186 31.952C122.658 31.952 124.023 31.696 125.282 31.184C126.54 30.6507 127.628 29.9147 128.546 28.976C129.484 28.016 130.21 26.9067 130.722 25.648C131.234 24.368 131.49 22.9813 131.49 21.488C131.49 20.016 131.234 18.6507 130.722 17.392C130.21 16.112 129.484 15.0027 128.546 14.064C127.628 13.104 126.54 12.368 125.282 11.856C124.023 11.3227 122.658 11.056 121.186 11.056C119.692 11.056 118.316 11.3227 117.058 11.856C115.799 12.368 114.7 13.104 113.762 14.064C112.844 15.0027 112.13 16.112 111.618 17.392C111.106 18.6507 110.85 20.016 110.85 21.488C110.85 22.9813 111.106 24.368 111.618 25.648C112.13 26.9067 112.844 28.016 113.762 28.976C114.7 29.9147 115.799 30.6507 117.058 31.184C118.316 31.696 119.692 31.952 121.186 31.952ZM140.35 34C139.988 34 139.689 33.8827 139.454 33.648C139.22 33.4133 139.102 33.1147 139.102 32.752V10.256C139.102 9.89333 139.22 9.59466 139.454 9.36C139.689 9.12533 139.988 9.008 140.35 9.008H146.334C147.892 9.008 149.278 9.33867 150.494 10C151.71 10.64 152.66 11.5467 153.342 12.72C154.046 13.872 154.398 15.2053 154.398 16.72C154.398 18.1707 154.046 19.4613 153.342 20.592C152.66 21.7227 151.71 22.608 150.494 23.248C149.278 23.888 147.892 24.208 146.334 24.208H141.598V32.752C141.598 33.1147 141.481 33.4133 141.246 33.648C141.012 33.8827 140.713 34 140.35 34ZM153.726 34C153.449 34 153.225 33.9467 153.054 33.84C152.905 33.7333 152.766 33.5733 152.638 33.36L146.494 23.568L148.99 22.928L154.718 32.08C155.038 32.592 155.092 33.04 154.878 33.424C154.686 33.808 154.302 34 153.726 34ZM141.598 21.808H146.334C147.422 21.808 148.382 21.5947 149.214 21.168C150.068 20.72 150.74 20.112 151.23 19.344C151.721 18.576 151.966 17.7013 151.966 16.72C151.966 15.6747 151.721 14.7573 151.23 13.968C150.74 13.1573 150.068 12.528 149.214 12.08C148.382 11.632 147.422 11.408 146.334 11.408H141.598V21.808ZM160.132 34C159.769 34 159.47 33.8827 159.236 33.648C159.001 33.4133 158.884 33.1147 158.884 32.752V10.256C158.884 9.89333 159.001 9.59466 159.236 9.36C159.47 9.12533 159.769 9.008 160.132 9.008C160.494 9.008 160.793 9.12533 161.028 9.36C161.262 9.59466 161.38 9.89333 161.38 10.256V32.752C161.38 33.1147 161.262 33.4133 161.028 33.648C160.793 33.8827 160.494 34 160.132 34Z" fill="black"/>
<path fill-rule="evenodd" clip-rule="evenodd" d="M41.1771 21C41.7306 21 42.1792 21.4477 42.1792 22C42.1792 26.4183 38.5899 30 34.1623 30C33.6088 30 33.1602 29.5523 33.1602 29C33.1602 28.4477 33.6088 28 34.1623 28C37.483 28 40.175 25.3137 40.175 22C40.175 21.4477 40.6236 21 41.1771 21Z" fill="black"/>
<path fill-rule="evenodd" clip-rule="evenodd" d="M128.361 21C128.914 21 129.363 21.4477 129.363 22C129.363 26.4183 125.774 30 121.346 30C120.792 30 120.344 29.5523 120.344 29C120.344 28.4477 120.792 28 121.346 28C124.667 28 127.359 25.3137 127.359 22C127.359 21.4477 127.807 21 128.361 21Z" fill="black"/>
<ellipse cx="73.2446" cy="3" rx="3.00635" ry="3" fill="black"/>
<ellipse cx="160.428" cy="3" rx="3.00635" ry="3" fill="black"/>
</svg>
