<svg width="165" height="41" viewBox="0 0 165 41" fill="none" xmlns="http://www.w3.org/2000/svg">
<path d="M10.368 34C10.0267 34 9.728 33.8827 9.472 33.648C9.23733 33.392 9.12 33.0933 9.12 32.752V24.752L0.416 10.96C0.202667 10.64 0.117333 10.3307 0.16 10.032C0.224 9.73333 0.362667 9.488 0.576 9.296C0.789333 9.104 1.056 9.008 1.376 9.008C1.632 9.008 1.83467 9.06133 1.984 9.168C2.15467 9.27467 2.304 9.424 2.432 9.616L11.072 23.536H9.728L18.336 9.68C18.4853 9.44533 18.6453 9.27467 18.816 9.168C19.008 9.06133 19.232 9.008 19.488 9.008C19.7867 9.008 20.032 9.11467 20.224 9.328C20.4373 9.52 20.5547 9.76533 20.576 10.064C20.6187 10.3627 20.544 10.6613 20.352 10.96L11.616 24.752V32.752C11.616 33.0933 11.488 33.392 11.232 33.648C10.9973 33.8827 10.7093 34 10.368 34ZM33.9083 34.32C32.0523 34.32 30.3456 34 28.7883 33.36C27.2309 32.72 25.8763 31.824 24.7243 30.672C23.5936 29.52 22.7083 28.1653 22.0683 26.608C21.4496 25.0507 21.1403 23.344 21.1403 21.488C21.1403 19.6533 21.4496 17.9573 22.0683 16.4C22.7083 14.8427 23.5936 13.488 24.7243 12.336C25.8763 11.184 27.2309 10.288 28.7883 9.648C30.3456 9.008 32.0523 8.688 33.9083 8.688C35.7429 8.688 37.4389 9.008 38.9963 9.648C40.5536 10.288 41.9083 11.184 43.0603 12.336C44.2123 13.488 45.0976 14.8427 45.7163 16.4C46.3563 17.9573 46.6763 19.6533 46.6763 21.488C46.6763 23.344 46.3563 25.0507 45.7163 26.608C45.0976 28.1653 44.2123 29.52 43.0603 30.672C41.9083 31.824 40.5536 32.72 38.9963 33.36C37.4389 34 35.7429 34.32 33.9083 34.32ZM33.9083 31.952C35.3803 31.952 36.7456 31.696 38.0043 31.184C39.2629 30.6507 40.3509 29.9147 41.2683 28.976C42.2069 28.016 42.9323 26.9067 43.4443 25.648C43.9563 24.368 44.2123 22.9813 44.2123 21.488C44.2123 20.016 43.9563 18.6507 43.4443 17.392C42.9323 16.112 42.2069 15.0027 41.2683 14.064C40.3509 13.104 39.2629 12.368 38.0043 11.856C36.7456 11.3227 35.3803 11.056 33.9083 11.056C32.4149 11.056 31.0389 11.3227 29.7803 11.856C28.5216 12.368 27.4229 13.104 26.4843 14.064C25.5669 15.0027 24.8523 16.112 24.3403 17.392C23.8283 18.6507 23.5723 20.016 23.5723 21.488C23.5723 22.9813 23.8283 24.368 24.3403 25.648C24.8523 26.9067 25.5669 28.016 26.4843 28.976C27.4229 29.9147 28.5216 30.6507 29.7803 31.184C31.0389 31.696 32.4149 31.952 33.9083 31.952ZM53.073 34C52.7103 34 52.4117 33.8827 52.177 33.648C51.9423 33.4133 51.825 33.1147 51.825 32.752V10.256C51.825 9.89333 51.9423 9.59466 52.177 9.36C52.4117 9.12533 52.7103 9.008 53.073 9.008H59.057C60.6143 9.008 62.001 9.33867 63.217 10C64.433 10.64 65.3823 11.5467 66.065 12.72C66.769 13.872 67.121 15.2053 67.121 16.72C67.121 18.1707 66.769 19.4613 66.065 20.592C65.3823 21.7227 64.433 22.608 63.217 23.248C62.001 23.888 60.6143 24.208 59.057 24.208H54.321V32.752C54.321 33.1147 54.2037 33.4133 53.969 33.648C53.7343 33.8827 53.4357 34 53.073 34ZM66.449 34C66.1717 34 65.9477 33.9467 65.777 33.84C65.6277 33.7333 65.489 33.5733 65.361 33.36L59.217 23.568L61.713 22.928L67.441 32.08C67.761 32.592 67.8143 33.04 67.601 33.424C67.409 33.808 67.025 34 66.449 34ZM54.321 21.808H59.057C60.145 21.808 61.105 21.5947 61.937 21.168C62.7903 20.72 63.4623 20.112 63.953 19.344C64.4437 18.576 64.689 17.7013 64.689 16.72C64.689 15.6747 64.4437 14.7573 63.953 13.968C63.4623 13.1573 62.7903 12.528 61.937 12.08C61.105 11.632 60.145 11.408 59.057 11.408H54.321V21.808ZM72.8543 34C72.4916 34 72.1929 33.8827 71.9583 33.648C71.7236 33.4133 71.6063 33.1147 71.6063 32.752V10.256C71.6063 9.89333 71.7236 9.59466 71.9583 9.36C72.1929 9.12533 72.4916 9.008 72.8543 9.008C73.2169 9.008 73.5156 9.12533 73.7503 9.36C73.9849 9.59466 74.1023 9.89333 74.1023 10.256V32.752C74.1023 33.1147 73.9849 33.4133 73.7503 33.648C73.5156 33.8827 73.2169 34 72.8543 34ZM95.6475 34.32C94.2182 34.32 92.9382 33.9893 91.8075 33.328C90.6768 32.6667 89.7808 31.7707 89.1195 30.64C88.4582 29.5093 88.1275 28.24 88.1275 26.832C88.1275 26.4693 88.2448 26.1707 88.4795 25.936C88.7142 25.7013 89.0128 25.584 89.3755 25.584C89.7382 25.584 90.0368 25.7013 90.2715 25.936C90.5062 26.1707 90.6235 26.4693 90.6235 26.832C90.6235 27.792 90.8475 28.6667 91.2955 29.456C91.7435 30.224 92.3408 30.832 93.0875 31.28C93.8555 31.728 94.7088 31.952 95.6475 31.952C96.5862 31.952 97.4288 31.728 98.1755 31.28C98.9435 30.8107 99.5408 30.192 99.9675 29.424C100.416 28.656 100.64 27.792 100.64 26.832V10.256C100.64 9.89333 100.757 9.59466 100.992 9.36C101.226 9.12533 101.525 9.008 101.888 9.008C102.25 9.008 102.549 9.12533 102.784 9.36C103.018 9.59466 103.135 9.89333 103.135 10.256V26.832C103.135 28.24 102.805 29.5093 102.144 30.64C101.482 31.7707 100.586 32.6667 99.4555 33.328C98.3248 33.9893 97.0555 34.32 95.6475 34.32ZM121.096 34.32C119.24 34.32 117.533 34 115.976 33.36C114.418 32.72 113.064 31.824 111.912 30.672C110.781 29.52 109.896 28.1653 109.256 26.608C108.637 25.0507 108.328 23.344 108.328 21.488C108.328 19.6533 108.637 17.9573 109.256 16.4C109.896 14.8427 110.781 13.488 111.912 12.336C113.064 11.184 114.418 10.288 115.976 9.648C117.533 9.008 119.24 8.688 121.096 8.688C122.93 8.688 124.626 9.008 126.184 9.648C127.741 10.288 129.096 11.184 130.248 12.336C131.4 13.488 132.285 14.8427 132.904 16.4C133.544 17.9573 133.864 19.6533 133.864 21.488C133.864 23.344 133.544 25.0507 132.904 26.608C132.285 28.1653 131.4 29.52 130.248 30.672C129.096 31.824 127.741 32.72 126.184 33.36C124.626 34 122.93 34.32 121.096 34.32ZM121.096 31.952C122.568 31.952 123.933 31.696 125.192 31.184C126.45 30.6507 127.538 29.9147 128.456 28.976C129.394 28.016 130.12 26.9067 130.632 25.648C131.144 24.368 131.4 22.9813 131.4 21.488C131.4 20.016 131.144 18.6507 130.632 17.392C130.12 16.112 129.394 15.0027 128.456 14.064C127.538 13.104 126.45 12.368 125.192 11.856C123.933 11.3227 122.568 11.056 121.096 11.056C119.602 11.056 118.226 11.3227 116.968 11.856C115.709 12.368 114.61 13.104 113.672 14.064C112.754 15.0027 112.04 16.112 111.528 17.392C111.016 18.6507 110.76 20.016 110.76 21.488C110.76 22.9813 111.016 24.368 111.528 25.648C112.04 26.9067 112.754 28.016 113.672 28.976C114.61 29.9147 115.709 30.6507 116.968 31.184C118.226 31.696 119.602 31.952 121.096 31.952ZM140.261 34C139.898 34 139.599 33.8827 139.365 33.648C139.13 33.4133 139.013 33.1147 139.013 32.752V10.256C139.013 9.89333 139.13 9.59466 139.365 9.36C139.599 9.12533 139.898 9.008 140.261 9.008H146.245C147.802 9.008 149.189 9.33867 150.405 10C151.621 10.64 152.57 11.5467 153.253 12.72C153.957 13.872 154.309 15.2053 154.309 16.72C154.309 18.1707 153.957 19.4613 153.253 20.592C152.57 21.7227 151.621 22.608 150.405 23.248C149.189 23.888 147.802 24.208 146.245 24.208H141.509V32.752C141.509 33.1147 141.391 33.4133 141.157 33.648C140.922 33.8827 140.623 34 140.261 34ZM153.637 34C153.359 34 153.135 33.9467 152.965 33.84C152.815 33.7333 152.677 33.5733 152.549 33.36L146.405 23.568L148.901 22.928L154.628 32.08C154.949 32.592 155.002 33.04 154.789 33.424C154.597 33.808 154.213 34 153.637 34ZM141.509 21.808H146.245C147.333 21.808 148.293 21.5947 149.125 21.168C149.978 20.72 150.65 20.112 151.141 19.344C151.631 18.576 151.877 17.7013 151.877 16.72C151.877 15.6747 151.631 14.7573 151.141 13.968C150.65 13.1573 149.978 12.528 149.125 12.08C148.293 11.632 147.333 11.408 146.245 11.408H141.509V21.808ZM160.042 34C159.679 34 159.38 33.8827 159.146 33.648C158.911 33.4133 158.794 33.1147 158.794 32.752V10.256C158.794 9.89333 158.911 9.59466 159.146 9.36C159.38 9.12533 159.679 9.008 160.042 9.008C160.404 9.008 160.703 9.12533 160.938 9.36C161.172 9.59466 161.29 9.89333 161.29 10.256V32.752C161.29 33.1147 161.172 33.4133 160.938 33.648C160.703 33.8827 160.404 34 160.042 34Z" fill="black"/>
<path fill-rule="evenodd" clip-rule="evenodd" d="M41 21C41.5523 21 42 21.4477 42 22C42 26.4183 38.4183 30 34 30C33.4477 30 33 29.5523 33 29C33 28.4477 33.4477 28 34 28C37.3137 28 40 25.3137 40 22C40 21.4477 40.4477 21 41 21Z" fill="black"/>
<path fill-rule="evenodd" clip-rule="evenodd" d="M128 21C128.552 21 129 21.4477 129 22C129 26.4183 125.418 30 121 30C120.448 30 120 29.5523 120 29C120 28.4477 120.448 28 121 28C124.314 28 127 25.3137 127 22C127 21.4477 127.448 21 128 21Z" fill="black"/>
<circle cx="73" cy="3" r="3" fill="black"/>
<circle cx="160" cy="3" r="3" fill="black"/>
</svg>
