<svg width="31" height="25" viewBox="0 0 31 25" fill="none" xmlns="http://www.w3.org/2000/svg">
<path d="M1.08838 4.59184H29.3862C29.9873 4.59184 30.4746 4.13501 30.4746 3.57143V1.02041C30.4746 0.456824 29.9873 0 29.3862 0H1.08838C0.487253 0 0 0.456824 0 1.02041V3.57143C0 4.13501 0.487253 4.59184 1.08838 4.59184ZM1.08838 14.7959H29.3862C29.9873 14.7959 30.4746 14.3391 30.4746 13.7755V11.2245C30.4746 10.6609 29.9873 10.2041 29.3862 10.2041H1.08838C0.487253 10.2041 0 10.6609 0 11.2245V13.7755C0 14.3391 0.487253 14.7959 1.08838 14.7959ZM1.08838 25H29.3862C29.9873 25 30.4746 24.5432 30.4746 23.9796V21.4286C30.4746 20.865 29.9873 20.4082 29.3862 20.4082H1.08838C0.487253 20.4082 0 20.865 0 21.4286V23.9796C0 24.5432 0.487253 25 1.08838 25Z" fill="black"/>
</svg>
